<svg xmlns="http://www.w3.org/2000/svg" viewBox="0 0 108.35 95.11"><defs><style>.cls-1{fill:#fff;}</style></defs><title>Portfolio-closedAsset 7</title><g id="Layer_2" data-name="Layer 2"><g id="Capa_1" data-name="Capa 1"><path class="cls-1" d="M101.73,13.78H72.58V9.93A9.94,9.94,0,0,0,62.65,0H45.7a10,10,0,0,0-9.93,9.93v3.86H6.62A6.63,6.63,0,0,0,0,20.41v68a6.66,6.66,0,0,0,6.66,6.66h95a6.66,6.66,0,0,0,6.66-6.66v-68A6.64,6.64,0,0,0,101.73,13.78ZM43.37,7.6a3.2,3.2,0,0,1,2.33-1H62.65A3.31,3.31,0,0,1,66,9.93v3.86H42.39V9.93h0A3.29,3.29,0,0,1,43.37,7.6Z"/></g></g></svg>