<svg xmlns="http://www.w3.org/2000/svg" viewBox="0 0 137.16 95.11"><defs><style>.cls-1{fill:#fff;}</style></defs><title>Portfolio-openAsset 8</title><g id="Layer_2" data-name="Layer 2"><g id="Capa_1" data-name="Capa 1"><path class="cls-1" d="M37.73,24.82h70.62V20.41a6.64,6.64,0,0,0-6.62-6.63H72.58V9.93A9.94,9.94,0,0,0,62.65,0H45.7a10,10,0,0,0-9.93,9.93v3.86H6.62A6.63,6.63,0,0,0,0,20.41V79.54l22.26-45.1A18.33,18.33,0,0,1,37.73,24.82ZM42.39,9.93a3.29,3.29,0,0,1,1-2.33,3.2,3.2,0,0,1,2.33-1H62.65A3.31,3.31,0,0,1,66,9.93v3.86H42.39V9.93Z"/><path class="cls-1" d="M132.85,31.43H37.73a11.64,11.64,0,0,0-9.53,5.93L2.62,89.18c-1.61,3.26,0,5.93,3.69,5.93h95.11A11.67,11.67,0,0,0,111,89.18l25.57-51.82C138.15,34.1,136.5,31.43,132.85,31.43Z"/></g></g></svg>