<svg xmlns="http://www.w3.org/2000/svg" viewBox="0 0 397.1 348.56"><defs><style>.cls-1{fill:#010002;}</style></defs><title>Portfolio-closedAsset 1</title><g id="Layer_2" data-name="Layer 2"><g id="Capa_1" data-name="Capa 1"><path class="cls-1" d="M372.83,50.52H266V36.39A36.43,36.43,0,0,0,229.62,0H167.5a36.48,36.48,0,0,0-36.41,36.39V50.54H24.27A24.3,24.3,0,0,0,0,74.79V324.15a24.41,24.41,0,0,0,24.41,24.41H372.68a24.41,24.41,0,0,0,24.42-24.41V74.79A24.35,24.35,0,0,0,372.83,50.52ZM158.93,27.85a11.87,11.87,0,0,1,8.55-3.6H229.6a12.12,12.12,0,0,1,12.12,12.14V50.54H155.35V36.39h0A12.15,12.15,0,0,1,158.93,27.85Z"/></g></g></svg>